<svg width="200" height="200" viewBox="0 0 100 100" xmlns="http://www.w3.org/2000/svg">
  <!-- 
    VIEWBOX:
      The viewBox="0 0 100 100" is added because the icon was designed
      within a 100x100 unit space. The coordinates used in paths/circles 
      are generally within this range. This allows the icon to scale 
      cleanly to the specified width/height (200x200).
  -->

  <!-- DEFINITIONS: Contains reusable elements like gradients -->
  <defs>
    <!-- 
      Linear Gradient: PurPiGradient
        A vertical gradient from Purple (top) to Pink (bottom).
        - x1, y1: Start point of the gradient vector (0%, 0% = top-left of the object's bounding box)
        - x2, y2: End point of the gradient vector (0%, 100% = bottom-left of the object's bounding box)
    -->
    <linearGradient id="PurPiGradient" x1="0%" y1="0%" x2="0%" y2="100%">
      <stop offset="0%"   style="stop-color:#8c5eff;stop-opacity:1" />
      <stop offset="100%" style="stop-color:#ff67d7;stop-opacity:1" />
    </linearGradient>
  </defs>

  <!-- MAIN ICON GROUP: Artist Palette with Brush -->
  <!-- All visual elements of the icon are grouped here. -->
  <g id="artist-palette-with-brush">

    <!-- GROUP: Palette and Brush Shape Paths -->
    <!-- This group contains all the <path> elements that form the main shapes of the palette and the brush. -->
    <g id="palette-and-brush-shapes">
      <!-- Path 1: Brush Tip Swirl/Detail -->
      <!-- A small decorative element, representing the tip of the brush. -->
      <path
        id="brush-tip-swirl"
        fill="url(#PurPiGradient)"
        d="M60.3,73.2c-2.9-0.7-5.9,1.1-6.7,4l-0.1,0.3c-1.2,5.3-4.4,9.9-8.9,12.9c0.7,0.3,1.5,0.5,2.2,0.7 c7.8,1.8,15.6-3,17.6-10.6l0.1-0.4C65.3,76.9,63.4,73.9,60.3,73.2z">
      </path>
      
      <!-- Path 2: Main Body of the Artist Palette -->
      <!-- This is the largest path, forming the characteristic kidney-bean shape of the palette. -->
      <path
        id="palette-body"
        fill="url(#PurPiGradient)"
        d="M53.5,60.5c1.4-0.2,2.9-0.2,4.7,0l1.2,0.2l0.2-2.1l0-0.1c0,0,0-0.3,0.2-1l0.4-1.3L58.9,56 c-1.3-0.2-2.5-0.3-3.6-0.3c-2.4,0-4.6,0.4-6.7,1.3c-6.1,2.6-7.8,9.3-9.3,15.1c-0.5,1.8-0.9,3.6-1.5,5.1c-1.6,4.3-5,6.7-9.3,6.7 c-1.1,0-2.3-0.2-3.5-0.5c-5.2-1.4-8.8-6.1-11.1-9.6c-4.3-8.7-1.1-18.5,2.6-27.8c3.8-9.7,8.3-19.6,17.4-25 c6.9-4.1,16.5-4.4,28.2-0.8c5.4,1.6,10.1,3.8,13.9,6.5l1,0.7l2.4-4.1l-0.9-0.6c-4.9-3.4-11-6.1-18.5-8 c-10.1-2.6-19.6-2.1-27.3,1.6C23.6,20.7,18.4,30,14.5,38.6C8.9,51,3.8,64.1,9.5,75.7c0.1,0.2,0.1,0.3,0.2,0.4 c0.1,0.1,0.2,0.3,0.3,0.4c3.7,5.6,10,12.3,18.4,12.3c0.6,0,1.2,0,1.8-0.1C40,87.6,42.4,79,44.5,71.5l0.4-1.4 C46.5,64.2,49.2,61.3,53.5,60.5z">
      </path>
      
      <!-- Path 3: Brush Handle -->
      <!-- This path forms the main handle of the paintbrush. -->
      <path
        id="brush-handle"
        fill="url(#PurPiGradient)"
        d="M93.1,35.3c-1.2-1.9-2.7-3.7-4.5-5.5l-1.3-1.3l-1.9,4.8L86,34c3.3,3.5,5.3,7.5,6.1,11.9 c0.8,4.7-0.8,9.6-4.4,13.2c-2.1,2.1-4.8,3.1-8.4,3.1c-1.2,0-2.6-0.1-4-0.4l-0.9-0.2L74,62.5c-0.3,0.7-0.7,1.5-1,2.1L72.2,66 l1.6,0.3c1.8,0.4,3.6,0.5,5.2,0.5c6,0,10.8-2.4,14.4-7.1C99.1,52.2,97.3,41.8,93.1,35.3z">
      </path>
      
      <!-- Path 4: Brush Ferrule and Bristles Base -->
      <!-- This path represents the metal ferrule connecting the bristles to the handle, and the base of the bristles. -->
      <path
        id="brush-ferrule-bristles"
        fill="url(#PurPiGradient)"
        d="M72.7,61.3l14.5-36.9l1.2-3.1l5.2-13.1c0.1-0.1,0-0.3-0.1-0.4L92,6.7c-0.2-0.1-0.4-0.1-0.5,0.2l-6.2,10.4 l-1.5,2.6L62.5,55.5c-0.3,0.5-0.8,1.5-1.1,2.4c-0.2,0.7-0.4,1.3-0.5,1.8l-0.2,1l-1.5,7.6c0,0,0,0,0,0.1c-0.1,1,0.5,2.3,1.3,2.6 l3.2,1.8c0.8,0.4,1.9,0.2,2.6-0.6c0,0,0,0,0-0.1l3.8-5.9c0.2-0.2,0.5-0.8,0.9-1.5c0.5-0.9,1-2,1.3-2.8 C72.5,61.8,72.6,61.5,72.7,61.3z">
      </path>
    </g>
    <!-- End of palette-and-brush-shapes group -->

    <!-- GROUP: Paint Blobs -->
    <!-- This group contains the circular shapes representing dabs of paint on the palette. -->
    <g id="paint-blobs">
      <circle id="paint-blob-bottom-left" fill="url(#PurPiGradient)" cx="25.1" cy="67.9" r="5.9"></circle>
      <circle id="paint-blob-middle-left" fill="url(#PurPiGradient)" cx="30.9" cy="48.3" r="5.9"></circle>
      <circle id="paint-blob-top-left"    fill="url(#PurPiGradient)" cx="42.3" cy="31.4" r="5.9"></circle>
      <circle id="paint-blob-top-middle"  fill="url(#PurPiGradient)" cx="61.4" cy="31.4" r="5.9"></circle>
    </g>
    <!-- End of paint-blobs group -->

  </g>
  <!-- End of artist-palette-with-brush group -->
</svg>